<?xml version="1.0" encoding="UTF-8"?>
<svg xmlns="http://www.w3.org/2000/svg" xmlns:xlink="http://www.w3.org/1999/xlink" viewBox="0 0 16 16" width="16px" height="16px">
<g id="surface91335779">
<path style=" stroke:none;fill-rule:nonzero;fill:rgb(100%,100%,100%);fill-opacity:1;" d="M 3.5 1 C 2.125 1 1 2.125 1 3.5 L 1 11.5 C 1 12.875 2.125 14 3.5 14 L 11.5 14 C 12.875 14 14 12.875 14 11.5 L 14 3.5 C 14 2.125 12.875 1 11.5 1 Z M 3.5 2 L 11.5 2 C 12.335938 2 13 2.664062 13 3.5 L 13 11.5 C 13 12.335938 12.335938 13 11.5 13 L 9.90625 13 L 9.90625 8.96875 L 11.300781 8.96875 L 11.511719 7.359375 L 9.90625 7.359375 L 9.90625 6.332031 C 9.90625 5.867188 10.035156 5.550781 10.707031 5.550781 L 11.566406 5.550781 L 11.566406 4.109375 C 11.417969 4.089844 10.90625 4.046875 10.316406 4.046875 C 9.078125 4.046875 8.230469 4.796875 8.230469 6.171875 L 8.230469 7.359375 L 7 7.355469 L 7 8.964844 L 8.230469 8.96875 L 8.230469 13 L 3.5 13 C 2.664062 13 2 12.335938 2 11.5 L 2 3.5 C 2 2.664062 2.664062 2 3.5 2 Z M 3.5 2 "/>
</g>
</svg>
