<?xml version="1.0" encoding="UTF-8"?>
<svg xmlns="http://www.w3.org/2000/svg" xmlns:xlink="http://www.w3.org/1999/xlink" viewBox="0 0 16 16" width="16px" height="16px">
<g id="surface91396490">
<path style=" stroke:none;fill-rule:nonzero;fill:rgb(100%,100%,100%);fill-opacity:1;" d="M 6.5 1 C 5.675781 1 5 1.675781 5 2.5 L 5 3 L 2.5 3 C 1.675781 3 1 3.675781 1 4.5 L 1 12.5 C 1 13.324219 1.675781 14 2.5 14 L 13.5 14 C 14.324219 14 15 13.324219 15 12.5 L 15 4.5 C 15 3.675781 14.324219 3 13.5 3 L 11 3 L 11 2.5 C 11 1.675781 10.324219 1 9.5 1 Z M 6.5 2 L 9.5 2 C 9.78125 2 10 2.21875 10 2.5 L 10 3 L 6 3 L 6 2.5 C 6 2.21875 6.21875 2 6.5 2 Z M 2.5 4 L 13.5 4 C 13.78125 4 14 4.21875 14 4.5 L 14 9 L 2 9 L 2 4.5 C 2 4.21875 2.21875 4 2.5 4 Z M 7 7 L 7 8 L 9 8 L 9 7 Z M 2 10 L 14 10 L 14 12.5 C 14 12.78125 13.78125 13 13.5 13 L 2.5 13 C 2.21875 13 2 12.78125 2 12.5 Z M 2 10 "/>
</g>
</svg>
